<?xml version="1.0" standalone="no"?>
<!DOCTYPE svg PUBLIC "-//W3C//DTD SVG 20010904//EN"
 "http://www.w3.org/TR/2001/REC-SVG-20010904/DTD/svg10.dtd">
<svg version="1.0" xmlns="http://www.w3.org/2000/svg"
 width="512.000000pt" height="512.000000pt" viewBox="0 0 512.000000 512.000000"
 preserveAspectRatio="xMidYMid meet">

<g transform="translate(0.000000,512.000000) scale(0.100000,-0.100000)"
fill="#000000" stroke="none">
<path d="M171 5103 c-26 -9 -65 -36 -91 -62 -87 -87 -80 100 -80 -2050 0
-1266 4 -1918 10 -1943 19 -68 70 -130 134 -163 l60 -30 768 -3 768 -3 -85
-169 -85 -170 -173 0 c-159 0 -176 -2 -222 -24 -94 -43 -148 -129 -148 -231 1
-99 43 -171 132 -223 l46 -27 1355 0 1355 0 46 27 c89 52 131 124 132 223 0
102 -54 188 -148 231 -46 22 -63 24 -222 24 l-173 0 -85 170 -85 169 768 3
768 3 60 30 c64 33 115 95 134 163 6 25 10 677 10 1943 0 2150 7 1963 -80
2049 -87 88 156 80 -2484 79 -2100 0 -2346 -2 -2385 -16z m3499 -1245 l0 -662
-153 152 c-208 206 -173 209 -424 -40 -182 -182 -194 -191 -207 -173 -8 11
-149 191 -313 400 -206 262 -308 383 -326 389 -17 6 -37 6 -54 0 -20 -6 -154
-166 -459 -547 -237 -296 -436 -543 -442 -549 -9 -9 -12 190 -12 840 l0 852
1195 0 1195 0 0 -662z m-1209 -645 c167 -213 395 -504 506 -645 l203 -258
-945 0 -945 0 0 108 0 107 430 538 c237 295 434 537 438 537 5 0 146 -174 313
-387z m-1518 -1793 c13 -64 -127 -60 1952 -60 l1885 0 0 -127 c0 -71 -5 -145
-11 -165 l-10 -38 -2262 0 c-2513 0 -2296 -6 -2317 68 -5 20 -10 88 -10 150
l0 112 271 0 271 0 29 29 c16 16 29 37 29 45 0 13 14 16 84 16 l84 0 5 -30z
m2797 -1106 c13 -33 13 -86 0 -119 l-10 -25 -1241 2 -1241 3 -24 28 c-38 44
-29 96 21 125 15 8 344 11 1253 12 l1232 0 10 -26z"/>
<path d="M3000 4347 c-112 -25 -211 -109 -251 -216 -30 -80 -24 -196 15 -274
34 -71 110 -139 184 -167 80 -31 205 -25 278 13 141 72 218 237 180 388 -47
183 -225 296 -406 256z m150 -189 c122 -62 118 -238 -6 -298 -160 -78 -318
124 -201 257 58 66 130 80 207 41z"/>
</g>
</svg>
